<svg width="62" height="62" viewBox="0 0 62 62" fill="none" xmlns="http://www.w3.org/2000/svg">
<circle opacity="0.1" cx="31" cy="31" r="31" fill="#F09831"/>
<path d="M38.9637 16.0002C38.8872 15.9995 38.8104 16.0007 38.7322 16.0022C37.8382 16.0202 36.8336 16.1877 35.6633 16.5431C34.1546 17.0013 33.0984 18.3989 33.249 19.8924C33.3582 20.9801 34.2719 22.1652 35.3286 22.9296C36.9899 24.1309 38.1771 25.3693 38.9911 26.5536L39.5047 29.805L40.7487 29.6115L40.4076 27.4522C40.3174 25.9211 39.8701 24.4091 38.9028 22.8526C39.8821 23.4378 40.7456 24.0815 41.4643 24.7269L43.3651 28.4362L44.487 27.8744L42.7 24.3858C42.2186 23.2311 41.4981 22.146 40.4246 21.122C41.5002 21.4398 42.4775 21.8436 43.3188 22.2826L46.0067 25.2929L46.9497 24.469L44.2218 21.4152L44.2155 21.4215C43.411 20.4344 42.3824 19.5784 41.0328 18.8792V18.873C41.0141 18.8569 40.9953 18.8855 40.9781 18.8855C39.2741 18.7637 37.7633 18.8744 36.7832 19.1311C37.684 18.4233 39.1276 17.8965 41.1339 17.7165L44.3248 18.9354L44.7795 17.7747L41.9927 16.7096L41.9864 16.7075C41.0793 16.2753 40.1123 16.0109 38.9637 16.0002ZM22.9541 16.0022C21.82 16.0176 20.8636 16.2794 19.9652 16.7075L17.1721 17.7746L17.6248 18.9354L20.8178 17.7165C22.823 17.8967 24.2681 18.4235 25.1685 19.1311C24.1885 18.8744 22.6777 18.7637 20.9736 18.8855C20.9565 18.8855 20.9377 18.8569 20.9189 18.8731V18.8793C19.5691 19.5785 18.5407 20.4343 17.7363 21.4214L17.7279 21.4152L15 24.4691L15.945 25.2929L18.6329 22.2826C19.4742 21.8436 20.4515 21.4398 21.5272 21.1219C20.4535 22.146 19.7309 23.2311 19.2496 24.3858L17.4627 27.8744L18.5866 28.4362L20.4852 24.7269C21.204 24.0815 22.0673 23.4377 23.0467 22.8526C22.0795 24.409 21.6322 25.9211 21.5418 27.4521L21.203 29.6114L22.4469 29.8048L22.9584 26.5576C23.7723 25.3723 24.9578 24.132 26.6208 22.9296C27.6776 22.1652 28.5912 20.98 28.7004 19.8923C28.8509 18.3988 27.7969 17.0012 26.2881 16.5431C25.0007 16.1521 23.9137 15.9892 22.954 16.0022H22.9541ZM34.4089 30.4707C33.6404 30.4707 32.774 30.7976 31.6999 31.983V40.6912C32.9958 39.766 34.292 39.3846 35.5097 39.3702C37.058 39.3519 38.4493 39.8782 39.6562 40.3979C40.8632 40.9175 41.9155 41.4184 42.6304 41.4941C42.9879 41.5321 43.2367 41.4883 43.4766 41.3402C43.6913 41.2078 43.9225 40.9531 44.1502 40.5061L42.7588 31.8684C42.0416 32.3627 41.3524 32.6375 40.6897 32.713C39.7598 32.819 38.9342 32.5446 38.2143 32.1825C36.775 31.4585 35.6438 30.4675 34.4088 30.4705L34.4089 30.4707ZM27.7154 30.8036C26.495 30.7981 25.3187 31.832 23.8488 32.6071C23.1138 32.9947 22.2761 33.299 21.3292 33.2166C20.6544 33.158 19.9536 32.8983 19.2286 32.4074L17.9193 40.9657C18.8364 41.8375 19.6264 42.0019 20.5188 41.8872C21.4798 41.7637 22.5619 41.2312 23.7119 40.6827C24.8619 40.1342 26.0902 39.566 27.446 39.5364C28.4277 39.5151 29.4484 39.8167 30.4413 40.5578V32.0455C29.3464 30.8173 28.7726 30.8059 27.7154 30.8034V30.8036ZM16.7428 33.3372L15.0736 43.8698L28.2015 44.7352V46H33.83V44.7372L47 43.8698L45.3309 33.3372L44.2849 33.4185L45.4256 40.5081L45.4553 40.6931L45.3773 40.8615C45.0567 41.5642 44.6535 42.0801 44.1439 42.3948C43.8973 42.5469 43.6326 42.6429 43.3629 42.6964L43.365 42.7089L43.2304 42.7214C43.2247 42.7222 43.2191 42.7227 43.2135 42.7234C43.149 42.7325 43.0846 42.7379 43.0199 42.7422H43.0115L31.0979 43.8821L31.0452 43.8864L30.9947 43.8822L20.3211 43.1521H20.3148C20.0045 43.1656 19.6898 43.1455 19.3738 43.0875C19.3718 43.0872 19.3696 43.0879 19.3675 43.0875C18.4905 42.9255 17.6052 42.4691 16.7911 41.6148L16.5806 41.3942L16.6271 41.0946L17.7994 33.4184L16.7428 33.3372V33.3372ZM35.5243 40.6141C34.2781 40.6287 32.9764 41.0586 31.521 42.4531L31.3631 42.6048L39.7531 41.804C39.5548 41.7148 39.3562 41.6251 39.1531 41.5377C37.9908 41.0373 36.7706 40.5994 35.5244 40.6141H35.5243ZM27.4733 40.7805C26.4693 40.8024 25.3893 41.2651 24.2591 41.804C24.0356 41.9105 23.8085 42.0201 23.5815 42.1285L30.7906 42.6216L30.6074 42.4135C29.4562 41.1032 28.4773 40.7586 27.4733 40.7804V40.7805Z" fill="#F09831"/>
</svg>
